<?xml version="1.0" standalone="no"?>
<!DOCTYPE svg PUBLIC "-//W3C//DTD SVG 20010904//EN"
 "http://www.w3.org/TR/2001/REC-SVG-20010904/DTD/svg10.dtd">
<svg version="1.0" xmlns="http://www.w3.org/2000/svg"
 width="192.000000pt" height="192.000000pt" viewBox="0 0 192.000000 192.000000"
 preserveAspectRatio="xMidYMid meet">
<metadata>
Created by potrace 1.11, written by Peter Selinger 2001-2013
</metadata>
<g transform="translate(0.000000,192.000000) scale(0.100000,-0.100000)"
fill="#000000" stroke="none">
<path d="M259 1909 c-108 -12 -188 -70 -232 -168 -20 -45 -21 -62 -21 -791 l0
-745 24 -48 c28 -59 76 -109 129 -136 40 -21 53 -21 806 -21 634 0 771 2 799
14 49 20 112 81 135 130 21 42 21 56 21 806 0 743 -1 765 -20 805 -28 58 -76
104 -138 133 l-53 24 -697 2 c-383 0 -722 -2 -753 -5z m-74 -665 c9 -4 75 -96
147 -205 71 -110 131 -199 132 -199 1 0 3 74 3 165 1 220 1 211 19 229 21 22
50 20 74 -4 19 -19 20 -33 20 -274 0 -140 -4 -266 -10 -280 -5 -14 -20 -28
-35 -32 -58 -14 -70 -2 -206 204 l-129 197 0 -180 c0 -201 -6 -225 -59 -225
-54 0 -56 10 -57 289 -1 294 4 317 68 320 9 1 24 -2 33 -5z m1237 -6 c9 -7 72
-96 139 -198 67 -102 125 -188 128 -193 4 -4 7 78 7 183 0 177 1 191 19 205
27 20 51 19 75 -5 19 -19 20 -33 20 -274 0 -140 -4 -266 -10 -280 -5 -14 -20
-28 -35 -32 -58 -14 -70 -2 -206 204 l-129 197 0 -180 c0 -147 -3 -185 -16
-203 -17 -25 -51 -29 -80 -8 -18 14 -19 29 -19 283 -1 265 -1 268 22 290 25
25 61 30 85 11z m-351 -22 c63 -37 77 -51 106 -107 26 -50 28 -62 28 -169 0
-100 -3 -120 -22 -155 -62 -112 -115 -136 -302 -137 -138 -1 -156 4 -168 40
-11 32 -10 487 1 519 10 30 21 32 181 30 122 -1 145 -3 176 -21z"/>
<path d="M829 1129 c-4 -68 -1 -371 4 -376 4 -3 38 -6 76 -6 127 0 175 55 176
198 0 91 -19 142 -63 171 -36 24 -192 34 -193 13z"/>
</g>
</svg>
